<svg width="90" height="90" viewBox="0 0 90 90" fill="none" xmlns="http://www.w3.org/2000/svg">
<circle cx="45" cy="45" r="45" fill="#EC6568"/>
<path d="M22.86 53.63C22.48 35.47 26.17 19.22 46.51 19.13C61 19.06 69.31 31.48 69.31 46.76C69.31 62.04 59.79 74.46 46.51 74.46" stroke="white" stroke-width="2" stroke-linecap="round" stroke-linejoin="round"/>
<path d="M22.86 53.63C21.79 53.63 18.19 50.24 18.18 46.07C18.18 39.44 22.78 38.51 23.85 38.51" stroke="white" stroke-width="2" stroke-linecap="round" stroke-linejoin="round"/>
<path d="M68.66 53.5C69.74 53.5 74.01 50.24 74.02 46.07C74.02 39.44 69.41 38.51 68.34 38.51" stroke="white" stroke-width="2" stroke-linecap="round" stroke-linejoin="round"/>
<path d="M51.05 70.38H39.65C38.6283 70.38 37.8 71.2083 37.8 72.23V73.69C37.8 74.7117 38.6283 75.54 39.65 75.54H51.05C52.0717 75.54 52.9 74.7117 52.9 73.69V72.23C52.9 71.2083 52.0717 70.38 51.05 70.38Z" fill="white"/>
<path d="M29.4764 51.64V50.5393L33.6102 46.0141C34.0953 45.4842 34.4948 45.0235 34.8087 44.6321C35.1226 44.2367 35.355 43.8657 35.5058 43.5192C35.6607 43.1686 35.7382 42.8017 35.7382 42.4185C35.7382 41.9782 35.6322 41.597 35.4202 41.275C35.2123 40.9529 34.9269 40.7042 34.5641 40.5289C34.2013 40.3536 33.7936 40.266 33.3411 40.266C32.86 40.266 32.4401 40.3659 32.0814 40.5656C31.7267 40.7613 31.4515 41.0365 31.2559 41.3912C31.0643 41.7458 30.9685 42.1617 30.9685 42.6386H29.5253C29.5253 41.9048 29.6945 41.2607 30.0329 40.7063C30.3712 40.1518 30.8319 39.7197 31.4149 39.4099C32.0019 39.1001 32.6603 38.9451 33.39 38.9451C34.1238 38.9451 34.7741 39.1001 35.3407 39.4099C35.9074 39.7197 36.3517 40.1376 36.6738 40.6635C36.9959 41.1894 37.1569 41.7744 37.1569 42.4185C37.1569 42.8792 37.0733 43.3296 36.9062 43.7699C36.7431 44.2061 36.4577 44.6933 36.0501 45.2314C35.6465 45.7655 35.0859 46.4177 34.3684 47.1882L31.5555 50.1968V50.2947H37.377V51.64H29.4764ZM39.34 49.0717V47.8242L44.8435 39.1164H45.7486V41.0487H45.137L40.9788 47.6285V47.7264H48.3903V49.0717H39.34ZM45.2349 51.64V48.6925V48.1116V39.1164H46.678V51.64H45.2349ZM55.1336 38.5293L51.0977 53.5234H49.7768L53.8128 38.5293H55.1336ZM57.2112 51.64L62.8126 40.5595V40.4617H56.3551V39.1164H64.3781V40.5351L58.8011 51.64H57.2112Z" fill="white"/>
</svg>
