<svg width="90" height="90" viewBox="0 0 90 90" fill="none" xmlns="http://www.w3.org/2000/svg">
<circle cx="45" cy="45" r="45" fill="#EC6568"/>
<path d="M26.63 29.18C23.1329 32.8878 20.8527 37.576 20.0949 42.6162C19.337 47.6563 20.1379 52.8077 22.39 57.38C26.25 65.12 36.6 73.28 45.8 70.44" stroke="white" stroke-width="2" stroke-linecap="round" stroke-linejoin="round"/>
<path d="M53.16 69.52C53.1791 69.272 53.1271 69.0237 53.0102 68.8041C52.8934 68.5845 52.7164 68.4027 52.5 68.28L52.29 68.19L45.29 65.13C45.0766 64.9232 44.7965 64.7991 44.5 64.78C44.1556 64.7551 43.8153 64.8673 43.5531 65.092C43.2909 65.3167 43.1281 65.6359 43.1 65.98C43.089 66.1522 43.1094 66.325 43.16 66.49L44.09 74.16C44.09 74.16 44.09 74.22 44.09 74.25C44.0712 74.5311 44.1436 74.8107 44.2963 75.0474C44.4489 75.2841 44.6739 75.4653 44.9377 75.5641C45.2015 75.6629 45.4901 75.674 45.7607 75.5958C46.0313 75.5176 46.2695 75.3543 46.44 75.13L52.61 70.47C52.7659 70.3619 52.896 70.2206 52.9911 70.0564C53.0861 69.8922 53.1438 69.7091 53.16 69.52Z" fill="white"/>
<path d="M64.45 61.86C67.4184 58.1964 69.2902 53.7681 69.8494 49.0861C70.4085 44.4042 69.6322 39.6596 67.61 35.4C64.19 28.26 55.44 20.45 46.88 22" stroke="white" stroke-width="2" stroke-linecap="round" stroke-linejoin="round"/>
<path d="M39.46 22.08C39.4136 22.3237 39.4379 22.5757 39.53 22.806C39.6222 23.0364 39.7783 23.2355 39.98 23.38C40.0398 23.4225 40.1034 23.4593 40.17 23.49L46.73 27.35C46.8874 27.5375 47.0946 27.6766 47.3276 27.7516C47.5607 27.8265 47.8101 27.8341 48.0473 27.7735C48.2844 27.7129 48.4997 27.5865 48.6682 27.409C48.8368 27.2315 48.9518 27.01 49 26.77C49.0299 26.6013 49.0299 26.4287 49 26.26V18.53C48.9953 18.5002 48.9953 18.4698 49 18.44C49.0684 18.1035 49.002 17.7535 48.815 17.4655C48.6279 17.1775 48.3353 16.9744 48 16.9C47.7833 16.8568 47.5592 16.87 47.3491 16.9383C47.1389 17.0066 46.9499 17.1277 46.8 17.29L40.11 21.18C39.9432 21.2744 39.7988 21.4036 39.6866 21.559C39.5744 21.7143 39.4971 21.892 39.46 22.08Z" fill="white"/>
</svg>
