<svg width="90" height="90" viewBox="0 0 90 90" fill="none" xmlns="http://www.w3.org/2000/svg">
<circle cx="45" cy="45" r="45" fill="#EC6568"/>
<path d="M59.4074 70.4854C58.5006 70.4848 57.6078 70.2616 56.8074 69.8354L47.7574 65.1154C47.0198 64.7152 46.1965 64.4991 45.3574 64.4854C44.518 64.4823 43.6905 64.6849 42.9474 65.0754L33.8874 69.8354C32.9666 70.3221 31.9277 70.5408 30.8888 70.4667C29.8499 70.3927 28.8526 70.0288 28.0101 69.4165C27.1676 68.8041 26.5136 67.9678 26.1225 67.0025C25.7314 66.0372 25.6188 64.9815 25.7974 63.9554L27.5274 53.8754C27.6698 53.0445 27.6076 52.1914 27.3462 51.3899C27.0849 50.5885 26.6322 49.8627 26.0274 49.2754L18.6874 42.1154C17.9412 41.3889 17.4132 40.4681 17.1632 39.4571C16.9132 38.4461 16.9511 37.3853 17.2726 36.3947C17.5941 35.4042 18.1864 34.5233 18.9825 33.8519C19.7787 33.1805 20.7468 32.7452 21.7774 32.5954L31.8974 31.1154C32.7306 30.9947 33.5219 30.6731 34.2031 30.1783C34.8843 29.6835 35.4349 29.0304 35.8074 28.2754L40.3574 19.1154C40.8163 18.1807 41.528 17.3933 42.4118 16.8426C43.2956 16.2919 44.3161 16 45.3574 16C46.3987 16 47.4192 16.2919 48.303 16.8426C49.1868 17.3933 49.8985 18.1807 50.3574 19.1154L54.8874 28.2854C55.2586 29.0366 55.8065 29.6865 56.484 30.1794C57.1615 30.6723 57.9485 30.9935 58.7774 31.1154L68.8974 32.5854C69.9322 32.7302 70.9054 33.1632 71.7058 33.8349C72.5063 34.5065 73.1016 35.3898 73.4239 36.3837C73.7462 37.3777 73.7824 38.4422 73.5284 39.4558C73.2743 40.4693 72.7404 41.391 71.9874 42.1154L64.6674 49.2554C64.0626 49.8427 63.6099 50.5685 63.3486 51.3699C63.0872 52.1714 63.025 53.0245 63.1674 53.8554L64.8974 63.9354C65.0386 64.7338 65.0024 65.5534 64.7916 66.3362C64.5808 67.119 64.2004 67.8459 63.6774 68.4654C63.1543 69.0897 62.5012 69.5922 61.7636 69.9377C61.026 70.2831 60.2219 70.4633 59.4074 70.4654V70.4854Z" stroke="#FCFCFC" stroke-width="2" stroke-linejoin="round"/>
</svg>
