<svg width="90" height="90" viewBox="0 0 90 90" fill="none" xmlns="http://www.w3.org/2000/svg">
<circle cx="45" cy="45" r="45" fill="#EC6568"/>
<path d="M18.8451 27.8548V18.9399H25.9315" stroke="white" stroke-width="2" stroke-linecap="round" stroke-linejoin="round"/>
<path d="M25.6165 72.06H18.8451V64.1511" stroke="white" stroke-width="2" stroke-linecap="round" stroke-linejoin="round"/>
<path d="M62.197 18.9399H72.1549V28.953" stroke="white" stroke-width="2" stroke-linecap="round" stroke-linejoin="round"/>
<path d="M59.7607 68.1102C65.6236 68.1102 70.3764 63.3751 70.3764 57.5342C70.3764 51.6932 65.6236 46.9581 59.7607 46.9581C53.8979 46.9581 49.1451 51.6932 49.1451 57.5342C49.1451 63.3751 53.8979 68.1102 59.7607 68.1102Z" stroke="white" stroke-width="2" stroke-linecap="round" stroke-linejoin="round"/>
<path d="M54.8234 56.5836L58.6584 60.4043L64.7814 53.3997" stroke="white" stroke-width="2" stroke-linecap="round" stroke-linejoin="round"/>
<path d="M60.5388 46.9858L56.5371 42.6207C55.7081 41.7312 54.7052 41.0203 53.59 40.5314C52.4749 40.0426 51.2711 39.7863 50.0529 39.7782H39.3909C38.1717 39.7858 36.967 40.0428 35.8516 40.5334C34.7362 41.0239 33.7338 41.7375 32.9066 42.6299L24.8291 51.3602C24.1988 52.0503 23.7827 52.9076 23.6313 53.8284C23.4799 54.7492 23.5996 55.694 23.9759 56.5484C24.3523 57.4028 24.9692 58.1302 25.7519 58.6425C26.5346 59.1549 27.4497 59.4302 28.3862 59.4353H28.6363C29.2675 59.4145 29.8881 59.2673 30.461 59.0025C31.0339 58.7377 31.5475 58.3608 31.9711 57.8941L33.1753 56.6113V66.7628H53.8693" stroke="white" stroke-width="2" stroke-linecap="round" stroke-linejoin="round"/>
<path d="M44.6895 39.7782C49.7594 39.7782 53.8693 35.6836 53.8693 30.6327C53.8693 25.5817 49.7594 21.4871 44.6895 21.4871C39.6196 21.4871 35.5096 25.5817 35.5096 30.6327C35.5096 35.6836 39.6196 39.7782 44.6895 39.7782Z" stroke="white" stroke-width="2" stroke-linecap="round" stroke-linejoin="round"/>
</svg>
