<svg width="90" height="90" viewBox="0 0 90 90" fill="none" xmlns="http://www.w3.org/2000/svg">
<circle cx="45" cy="45" r="45" fill="#EC6568"/>
<path d="M33.3989 49.1274C35.0215 48.5474 35.5652 45.9187 34.6134 43.256C33.6616 40.5933 31.5747 38.9049 29.9521 39.485C28.3295 40.065 27.7858 42.6937 28.7376 45.3564C29.6894 48.0191 31.7763 49.7074 33.3989 49.1274Z" stroke="white" stroke-width="2" stroke-linecap="round" stroke-linejoin="round"/>
<path d="M60.8683 45.3556C61.8201 42.6929 61.2764 40.0642 59.6538 39.4841C58.0312 38.9041 55.9443 40.5925 54.9924 43.2552C54.0406 45.9179 54.5844 48.5466 56.207 49.1266C57.8296 49.7066 59.9165 48.0183 60.8683 45.3556Z" stroke="white" stroke-width="2" stroke-linecap="round" stroke-linejoin="round"/>
<path d="M38.9449 41.6999C40.9773 41.6999 42.6249 38.9465 42.6249 35.5499C42.6249 32.1534 40.9773 29.3999 38.9449 29.3999C36.9125 29.3999 35.2649 32.1534 35.2649 35.5499C35.2649 38.9465 36.9125 41.6999 38.9449 41.6999Z" stroke="white" stroke-width="2" stroke-linecap="round" stroke-linejoin="round"/>
<path d="M50.0347 41.6999C52.0671 41.6999 53.7147 38.9465 53.7147 35.5499C53.7147 32.1534 52.0671 29.3999 50.0347 29.3999C48.0023 29.3999 46.3547 32.1534 46.3547 35.5499C46.3547 38.9465 48.0023 41.6999 50.0347 41.6999Z" stroke="white" stroke-width="2" stroke-linecap="round" stroke-linejoin="round"/>
<path d="M50.3449 49.0299C50.0849 48.8999 49.8249 48.7899 49.5649 48.6899C48.8849 45.8999 46.8949 43.8799 44.5649 43.8799C42.2349 43.8799 40.2649 45.8799 39.5649 48.6099C39.2229 48.7281 38.8889 48.8684 38.5649 49.0299C35.0849 50.7999 33.2049 54.8499 34.3549 58.0299C35.5049 61.2099 39.2549 62.4199 42.7349 60.6499C43.3552 60.3337 43.9331 59.9406 44.4549 59.4799C44.9785 59.9384 45.5561 60.3313 46.1749 60.6499C49.6549 62.4199 53.4049 61.2499 54.5649 58.0299C55.7249 54.8099 53.8249 50.8399 50.3449 49.0299Z" stroke="white" stroke-width="2" stroke-linecap="round" stroke-linejoin="round"/>
<path d="M16.2449 29.6C16.2449 29.6 25.6449 28.85 26.0249 20H63.0249C63.0249 20 64.7649 28.54 72.9249 29.47C72.9249 29.47 80.3449 63.17 44.8049 76.34C44.8349 76.34 12.9049 69.72 16.2449 29.6Z" stroke="white" stroke-width="2" stroke-linecap="round" stroke-linejoin="round"/>
</svg>
