<svg width="90" height="90" viewBox="0 0 90 90" fill="none" xmlns="http://www.w3.org/2000/svg">
<circle cx="45" cy="45" r="45" fill="#EC6568"/>
<path d="M66.09 40.8H24.79C21.9623 40.8 19.67 43.0923 19.67 45.92V64.85C19.67 67.6777 21.9623 69.97 24.79 69.97H66.09C68.9177 69.97 71.21 67.6777 71.21 64.85V45.92C71.21 43.0923 68.9177 40.8 66.09 40.8Z" stroke="white" stroke-width="2" stroke-linecap="round" stroke-linejoin="round"/>
<path d="M20.76 42.82L18.92 39C18.5356 37.8382 18.6257 36.5716 19.1708 35.476C19.7158 34.3803 20.6716 33.5443 21.83 33.15L56.62 21.5C57.7831 21.1082 59.054 21.1922 60.1554 21.7335C61.2569 22.2749 62.0997 23.2298 62.5 24.39L67.89 40.31" stroke="white" stroke-width="2" stroke-linecap="round" stroke-linejoin="round"/>
<path d="M40.64 32.19L19.07 38.71" stroke="white" stroke-width="2" stroke-linecap="round" stroke-linejoin="round"/>
<path d="M44.43 30.87L62.46 24.73" stroke="white" stroke-width="2" stroke-linecap="round" stroke-linejoin="round"/>
<path d="M45.75 36.49L63.77 30.36" stroke="white" stroke-width="2" stroke-linecap="round" stroke-linejoin="round"/>
<path d="M45.44 63.35C49.8638 63.35 53.45 59.7817 53.45 55.38C53.45 50.9783 49.8638 47.41 45.44 47.41C41.0162 47.41 37.43 50.9783 37.43 55.38C37.43 59.7817 41.0162 63.35 45.44 63.35Z" stroke="white" stroke-width="2" stroke-linecap="round" stroke-linejoin="round"/>
<path d="M48 55.7C47.8641 55.4874 47.6873 55.3039 47.48 55.16C47.2651 55.0157 47.0334 54.8982 46.79 54.81L46 54.57L45.27 54.34C45.0599 54.2744 44.8584 54.1838 44.67 54.07C44.5167 53.9861 44.3862 53.866 44.29 53.72C44.1933 53.5791 44.1442 53.4109 44.15 53.24C44.1492 53.0661 44.1903 52.8946 44.27 52.74C44.3571 52.5749 44.476 52.4288 44.62 52.31C44.7804 52.1757 44.9632 52.0708 45.16 52C45.3875 51.9174 45.628 51.8767 45.87 51.88C46.1066 51.8737 46.3427 51.904 46.57 51.97C46.7352 52.0194 46.8958 52.083 47.05 52.16C47.1446 52.2128 47.2349 52.273 47.32 52.34C47.57 52.55 47.77 52.52 47.88 52.34L48.02 52.14L47.87 52C47.6026 51.7653 47.2941 51.5823 46.96 51.46C46.6099 51.3382 46.2406 51.2806 45.87 51.29C45.557 51.2869 45.2458 51.3376 44.95 51.44C44.6854 51.5392 44.4388 51.6811 44.22 51.86C44.0184 52.0308 43.8549 52.2421 43.74 52.48C43.621 52.7084 43.5592 52.9624 43.56 53.22C43.5507 53.4951 43.6238 53.7668 43.77 54C43.9009 54.2111 44.0789 54.3891 44.29 54.52C44.5058 54.6576 44.7375 54.7684 44.98 54.85C45.22 54.94 45.47 55.02 45.72 55.09L46.45 55.32C46.6561 55.3878 46.854 55.4784 47.04 55.59C47.1935 55.6901 47.3259 55.8192 47.43 55.97C47.5254 56.1297 47.5707 56.3143 47.56 56.5C47.5619 56.7191 47.5211 56.9365 47.44 57.14C47.3649 57.3326 47.2489 57.5066 47.1 57.65C46.928 57.7988 46.7318 57.9172 46.52 58C46.2625 58.0876 45.9921 58.1316 45.72 58.13C45.4747 58.1242 45.2318 58.0803 45 58C44.8166 57.944 44.6416 57.8633 44.48 57.76C44.3641 57.6971 44.2566 57.6198 44.16 57.53C44.1199 57.4793 44.0701 57.4373 44.0134 57.4064C43.9567 57.3754 43.8943 57.3563 43.83 57.35C43.771 57.3343 43.709 57.3343 43.65 57.35C43.65 57.35 43.65 57.35 43.59 57.41L43.39 57.61L43.56 57.77L44 58.12C44.1562 58.2309 44.3239 58.3247 44.5 58.4C44.6842 58.4745 44.8751 58.5314 45.07 58.57C45.3009 58.612 45.5353 58.6321 45.77 58.63C46.111 58.6363 46.4502 58.5786 46.77 58.46C47.0551 58.3555 47.3167 58.1958 47.54 57.99C47.7494 57.7908 47.9132 57.5486 48.02 57.28C48.132 57.0071 48.1898 56.715 48.19 56.42C48.1891 56.1677 48.1237 55.9199 48 55.7Z" fill="white"/>
<path d="M45.75 50.1V59.81" stroke="white" stroke-width="0.5" stroke-linecap="round" stroke-linejoin="round"/>
</svg>
