<svg width="31" height="31" viewBox="0 0 31 31" fill="none" xmlns="http://www.w3.org/2000/svg">
<path d="M23.7014 18.0245C26.0764 18.0245 28 19.9157 28 22.249C28 24.581 26.0764 26.4722 23.7014 26.4722C21.3278 26.4722 19.4028 24.581 19.4028 22.249C19.4028 19.9157 21.3278 18.0245 23.7014 18.0245ZM13.1041 20.4474C14.1444 20.4474 14.9888 21.2771 14.9888 22.2991C14.9888 23.3198 14.1444 24.1508 13.1041 24.1508H4.88471C3.84444 24.1508 3 23.3198 3 22.2991C3 21.2771 3.84444 20.4474 4.88471 20.4474H13.1041ZM7.29859 4.25C9.67357 4.25 11.5972 6.14123 11.5972 8.4732C11.5972 10.8065 9.67357 12.6978 7.29859 12.6978C4.92499 12.6978 3 10.8065 3 8.4732C3 6.14123 4.92499 4.25 7.29859 4.25ZM26.1167 6.62291C27.1556 6.62291 28 7.45254 28 8.4732C28 9.49523 27.1556 10.3249 26.1167 10.3249H17.8973C16.857 10.3249 16.0126 9.49523 16.0126 8.4732C16.0126 7.45254 16.857 6.62291 17.8973 6.62291H26.1167Z" fill="white"/>
</svg>
