<svg width="98" height="36" viewBox="0 0 98 36" fill="none" xmlns="http://www.w3.org/2000/svg">
<path d="M27 26.3334C26.3056 26.3334 25.7153 26.0904 25.2292 25.6042C24.7431 25.1181 24.5 24.5279 24.5 23.8334C24.5 23.7362 24.5069 23.6354 24.5208 23.5309C24.5347 23.4265 24.5556 23.3329 24.5833 23.2501L18.7083 19.8334C18.4722 20.0417 18.2083 20.2051 17.9167 20.3234C17.625 20.4417 17.3194 20.5006 17 20.5001C16.3056 20.5001 15.7153 20.257 15.2292 19.7709C14.7431 19.2848 14.5 18.6945 14.5 18.0001C14.5 17.3056 14.7431 16.7154 15.2292 16.2292C15.7153 15.7431 16.3056 15.5001 17 15.5001C17.3194 15.5001 17.625 15.5592 17.9167 15.6776C18.2083 15.7959 18.4722 15.959 18.7083 16.1667L24.5833 12.7501C24.5556 12.6667 24.5347 12.5731 24.5208 12.4692C24.5069 12.3654 24.5 12.2645 24.5 12.1667C24.5 11.4723 24.7431 10.882 25.2292 10.3959C25.7153 9.9098 26.3056 9.66675 27 9.66675C27.6944 9.66675 28.2847 9.9098 28.7708 10.3959C29.2569 10.882 29.5 11.4723 29.5 12.1667C29.5 12.8612 29.2569 13.4515 28.7708 13.9376C28.2847 14.4237 27.6944 14.6667 27 14.6667C26.6806 14.6667 26.375 14.6079 26.0833 14.4901C25.7917 14.3723 25.5278 14.209 25.2917 14.0001L19.4167 17.4167C19.4444 17.5001 19.4653 17.594 19.4792 17.6984C19.4931 17.8029 19.5 17.9034 19.5 18.0001C19.5 18.0973 19.4931 18.1981 19.4792 18.3026C19.4653 18.407 19.4444 18.5006 19.4167 18.5834L25.2917 22.0001C25.5278 21.7917 25.7917 21.6287 26.0833 21.5109C26.375 21.3931 26.6806 21.334 27 21.3334C27.6944 21.3334 28.2847 21.5765 28.7708 22.0626C29.2569 22.5487 29.5 23.139 29.5 23.8334C29.5 24.5279 29.2569 25.1181 28.7708 25.6042C28.2847 26.0904 27.6944 26.3334 27 26.3334Z" fill="black"/>
<path d="M46.5 14.855C46.4 14.745 46.255 14.63 46.065 14.51C45.875 14.38 45.65 14.26 45.39 14.15C45.13 14.04 44.85 13.95 44.55 13.88C44.25 13.81 43.94 13.775 43.62 13.775C42.92 13.775 42.4 13.905 42.06 14.165C41.72 14.425 41.55 14.785 41.55 15.245C41.55 15.585 41.645 15.855 41.835 16.055C42.025 16.245 42.315 16.405 42.705 16.535C43.095 16.665 43.585 16.805 44.175 16.955C44.895 17.125 45.52 17.33 46.05 17.57C46.58 17.8 46.985 18.11 47.265 18.5C47.545 18.89 47.685 19.405 47.685 20.045C47.685 20.585 47.585 21.05 47.385 21.44C47.185 21.83 46.905 22.15 46.545 22.4C46.185 22.64 45.77 22.82 45.3 22.94C44.83 23.05 44.325 23.105 43.785 23.105C43.255 23.105 42.725 23.05 42.195 22.94C41.675 22.83 41.175 22.67 40.695 22.46C40.225 22.24 39.79 21.975 39.39 21.665L40.155 20.225C40.285 20.355 40.47 20.5 40.71 20.66C40.96 20.81 41.245 20.955 41.565 21.095C41.895 21.235 42.25 21.355 42.63 21.455C43.02 21.545 43.415 21.59 43.815 21.59C44.485 21.59 44.995 21.475 45.345 21.245C45.705 21.005 45.885 20.665 45.885 20.225C45.885 19.865 45.77 19.58 45.54 19.37C45.31 19.15 44.975 18.965 44.535 18.815C44.095 18.665 43.57 18.515 42.96 18.365C42.26 18.175 41.675 17.97 41.205 17.75C40.735 17.52 40.38 17.23 40.14 16.88C39.91 16.52 39.795 16.065 39.795 15.515C39.795 14.815 39.965 14.225 40.305 13.745C40.645 13.255 41.105 12.89 41.685 12.65C42.275 12.4 42.935 12.275 43.665 12.275C44.145 12.275 44.6 12.33 45.03 12.44C45.46 12.54 45.86 12.68 46.23 12.86C46.61 13.04 46.955 13.245 47.265 13.475L46.5 14.855ZM56.1803 23H54.5303V18.605C54.5303 17.895 54.4003 17.365 54.1403 17.015C53.8803 16.665 53.5153 16.49 53.0453 16.49C52.7553 16.49 52.4553 16.57 52.1453 16.73C51.8353 16.89 51.5603 17.11 51.3203 17.39C51.0803 17.66 50.9053 17.975 50.7953 18.335V23H49.1453V12.05H50.7953V16.73C51.0953 16.2 51.5053 15.785 52.0253 15.485C52.5453 15.175 53.1053 15.02 53.7053 15.02C54.1953 15.02 54.6003 15.105 54.9203 15.275C55.2403 15.445 55.4903 15.68 55.6703 15.98C55.8603 16.27 55.9903 16.61 56.0603 17C56.1403 17.38 56.1803 17.785 56.1803 18.215V23ZM57.5255 20.705C57.5255 20.205 57.6655 19.77 57.9455 19.4C58.2355 19.02 58.6305 18.73 59.1305 18.53C59.6305 18.32 60.2105 18.215 60.8705 18.215C61.2205 18.215 61.5755 18.24 61.9355 18.29C62.3055 18.34 62.6305 18.42 62.9105 18.53V18.035C62.9105 17.485 62.7455 17.055 62.4155 16.745C62.0855 16.435 61.6105 16.28 60.9905 16.28C60.5505 16.28 60.1355 16.36 59.7455 16.52C59.3555 16.67 58.9405 16.885 58.5005 17.165L57.9455 16.055C58.4655 15.705 58.9855 15.445 59.5055 15.275C60.0355 15.105 60.5905 15.02 61.1705 15.02C62.2205 15.02 63.0455 15.3 63.6455 15.86C64.2555 16.41 64.5605 17.195 64.5605 18.215V21.14C64.5605 21.33 64.5905 21.465 64.6505 21.545C64.7205 21.625 64.8355 21.67 64.9955 21.68V23C64.8455 23.03 64.7105 23.05 64.5905 23.06C64.4705 23.07 64.3705 23.075 64.2905 23.075C63.9405 23.075 63.6755 22.99 63.4955 22.82C63.3155 22.65 63.2105 22.45 63.1805 22.22L63.1355 21.77C62.7955 22.21 62.3605 22.55 61.8305 22.79C61.3005 23.03 60.7655 23.15 60.2255 23.15C59.7055 23.15 59.2405 23.045 58.8305 22.835C58.4205 22.615 58.1005 22.32 57.8705 21.95C57.6405 21.58 57.5255 21.165 57.5255 20.705ZM62.5205 21.185C62.6405 21.055 62.7355 20.925 62.8055 20.795C62.8755 20.665 62.9105 20.55 62.9105 20.45V19.55C62.6305 19.44 62.3355 19.36 62.0255 19.31C61.7155 19.25 61.4105 19.22 61.1105 19.22C60.5105 19.22 60.0205 19.34 59.6405 19.58C59.2705 19.82 59.0855 20.15 59.0855 20.57C59.0855 20.8 59.1455 21.02 59.2655 21.23C59.3955 21.44 59.5755 21.61 59.8055 21.74C60.0455 21.87 60.3405 21.935 60.6905 21.935C61.0505 21.935 61.3955 21.865 61.7255 21.725C62.0555 21.585 62.3205 21.405 62.5205 21.185ZM70.9723 16.58C70.3323 16.59 69.7623 16.735 69.2623 17.015C68.7723 17.295 68.4223 17.69 68.2123 18.2V23H66.5623V15.155H68.0923V16.91C68.3623 16.37 68.7173 15.94 69.1573 15.62C69.5973 15.29 70.0623 15.11 70.5523 15.08C70.6523 15.08 70.7323 15.08 70.7923 15.08C70.8623 15.08 70.9223 15.085 70.9723 15.095V16.58ZM75.5811 23.15C74.9711 23.15 74.4161 23.045 73.9161 22.835C73.4261 22.615 73.0011 22.32 72.6411 21.95C72.2811 21.57 72.0011 21.14 71.8011 20.66C71.6111 20.17 71.5161 19.65 71.5161 19.1C71.5161 18.36 71.6861 17.685 72.0261 17.075C72.3661 16.455 72.8411 15.96 73.4511 15.59C74.0611 15.21 74.7761 15.02 75.5961 15.02C76.4161 15.02 77.1211 15.21 77.7111 15.59C78.3111 15.96 78.7761 16.45 79.1061 17.06C79.4361 17.67 79.6011 18.325 79.6011 19.025C79.6011 19.145 79.5961 19.26 79.5861 19.37C79.5761 19.47 79.5661 19.555 79.5561 19.625H73.2711C73.3011 20.085 73.4261 20.49 73.6461 20.84C73.8761 21.18 74.1661 21.45 74.5161 21.65C74.8661 21.84 75.2411 21.935 75.6411 21.935C76.0811 21.935 76.4961 21.825 76.8861 21.605C77.2861 21.385 77.5561 21.095 77.6961 20.735L79.1061 21.14C78.9361 21.52 78.6761 21.865 78.3261 22.175C77.9861 22.475 77.5811 22.715 77.1111 22.895C76.6411 23.065 76.1311 23.15 75.5811 23.15ZM73.2261 18.53H77.9661C77.9361 18.08 77.8061 17.685 77.5761 17.345C77.3561 16.995 77.0711 16.725 76.7211 16.535C76.3811 16.335 76.0011 16.235 75.5811 16.235C75.1711 16.235 74.7911 16.335 74.4411 16.535C74.1011 16.725 73.8211 16.995 73.6011 17.345C73.3811 17.685 73.2561 18.08 73.2261 18.53Z" fill="black"/>
<rect x="0.5" y="0.5" width="97" height="35" rx="4.5" stroke="#E1E1E1"/>
</svg>
