<svg width="40" height="40" viewBox="0 0 40 40" fill="none" xmlns="http://www.w3.org/2000/svg">
<g filter="url(#filter0_d_480_686)">
<path d="M6.66667 21.6666C7.58333 21.6666 8.33333 20.9166 8.33333 20C8.33333 19.0833 7.58333 18.3333 6.66667 18.3333C5.75 18.3333 5 19.0833 5 20C5 20.9166 5.75 21.6666 6.66667 21.6666ZM6.66667 28.3333C7.58333 28.3333 8.33333 27.5833 8.33333 26.6666C8.33333 25.75 7.58333 25 6.66667 25C5.75 25 5 25.75 5 26.6666C5 27.5833 5.75 28.3333 6.66667 28.3333ZM6.66667 15C7.58333 15 8.33333 14.25 8.33333 13.3333C8.33333 12.4166 7.58333 11.6666 6.66667 11.6666C5.75 11.6666 5 12.4166 5 13.3333C5 14.25 5.75 15 6.66667 15ZM13.3333 21.6666H33.3333C34.25 21.6666 35 20.9166 35 20C35 19.0833 34.25 18.3333 33.3333 18.3333H13.3333C12.4167 18.3333 11.6667 19.0833 11.6667 20C11.6667 20.9166 12.4167 21.6666 13.3333 21.6666ZM13.3333 28.3333H33.3333C34.25 28.3333 35 27.5833 35 26.6666C35 25.75 34.25 25 33.3333 25H13.3333C12.4167 25 11.6667 25.75 11.6667 26.6666C11.6667 27.5833 12.4167 28.3333 13.3333 28.3333ZM11.6667 13.3333C11.6667 14.25 12.4167 15 13.3333 15H33.3333C34.25 15 35 14.25 35 13.3333C35 12.4166 34.25 11.6666 33.3333 11.6666H13.3333C12.4167 11.6666 11.6667 12.4166 11.6667 13.3333ZM6.66667 21.6666C7.58333 21.6666 8.33333 20.9166 8.33333 20C8.33333 19.0833 7.58333 18.3333 6.66667 18.3333C5.75 18.3333 5 19.0833 5 20C5 20.9166 5.75 21.6666 6.66667 21.6666ZM6.66667 28.3333C7.58333 28.3333 8.33333 27.5833 8.33333 26.6666C8.33333 25.75 7.58333 25 6.66667 25C5.75 25 5 25.75 5 26.6666C5 27.5833 5.75 28.3333 6.66667 28.3333ZM6.66667 15C7.58333 15 8.33333 14.25 8.33333 13.3333C8.33333 12.4166 7.58333 11.6666 6.66667 11.6666C5.75 11.6666 5 12.4166 5 13.3333C5 14.25 5.75 15 6.66667 15ZM13.3333 21.6666H33.3333C34.25 21.6666 35 20.9166 35 20C35 19.0833 34.25 18.3333 33.3333 18.3333H13.3333C12.4167 18.3333 11.6667 19.0833 11.6667 20C11.6667 20.9166 12.4167 21.6666 13.3333 21.6666ZM13.3333 28.3333H33.3333C34.25 28.3333 35 27.5833 35 26.6666C35 25.75 34.25 25 33.3333 25H13.3333C12.4167 25 11.6667 25.75 11.6667 26.6666C11.6667 27.5833 12.4167 28.3333 13.3333 28.3333ZM11.6667 13.3333C11.6667 14.25 12.4167 15 13.3333 15H33.3333C34.25 15 35 14.25 35 13.3333C35 12.4166 34.25 11.6666 33.3333 11.6666H13.3333C12.4167 11.6666 11.6667 12.4166 11.6667 13.3333Z" fill="#E85558"/>
</g>
<defs>
<filter id="filter0_d_480_686" x="-4" y="0" width="48" height="48" filterUnits="userSpaceOnUse" color-interpolation-filters="sRGB">
<feFlood flood-opacity="0" result="BackgroundImageFix"/>
<feColorMatrix in="SourceAlpha" type="matrix" values="0 0 0 0 0 0 0 0 0 0 0 0 0 0 0 0 0 0 127 0" result="hardAlpha"/>
<feOffset dy="4"/>
<feGaussianBlur stdDeviation="2"/>
<feComposite in2="hardAlpha" operator="out"/>
<feColorMatrix type="matrix" values="0 0 0 0 0 0 0 0 0 0 0 0 0 0 0 0 0 0 0.25 0"/>
<feBlend mode="normal" in2="BackgroundImageFix" result="effect1_dropShadow_480_686"/>
<feBlend mode="normal" in="SourceGraphic" in2="effect1_dropShadow_480_686" result="shape"/>
</filter>
</defs>
</svg>
