<svg width="28" height="28" viewBox="0 0 28 28" fill="none" xmlns="http://www.w3.org/2000/svg">
<path d="M7.66634 11.0834C7.66634 12.4181 6.58436 13.5001 5.24967 13.5001C3.91499 13.5001 2.83301 12.4181 2.83301 11.0834C2.83301 9.74873 3.91499 8.66675 5.24967 8.66675C6.58436 8.66675 7.66634 9.74873 7.66634 11.0834Z" stroke="black"/>
<path d="M12.9163 6.41667C12.9163 7.75136 11.8344 8.83333 10.4997 8.83333C9.16499 8.83333 8.08301 7.75136 8.08301 6.41667C8.08301 5.08198 9.16499 4 10.4997 4C11.8344 4 12.9163 5.08198 12.9163 6.41667Z" stroke="black"/>
<path d="M19.9163 6.41667C19.9163 7.75136 18.8344 8.83333 17.4997 8.83333C16.165 8.83333 15.083 7.75136 15.083 6.41667C15.083 5.08198 16.165 4 17.4997 4C18.8344 4 19.9163 5.08198 19.9163 6.41667Z" stroke="black"/>
<path d="M25.1663 11.0834C25.1663 12.4181 24.0844 13.5001 22.7497 13.5001C21.415 13.5001 20.333 12.4181 20.333 11.0834C20.333 9.74873 21.415 8.66675 22.7497 8.66675C24.0844 8.66675 25.1663 9.74873 25.1663 11.0834Z" stroke="black"/>
<path d="M19.6595 17.8234L19.6787 17.846L19.6998 17.867C19.793 17.9602 19.8861 18.0527 19.9788 18.1449C20.6724 18.8342 21.3417 19.4993 21.8398 20.237C22.3788 21.0353 22.6675 21.8504 22.5405 22.7765C22.2458 23.7571 21.5618 24.6473 20.4074 24.9082C20.3095 24.9247 20.0824 24.9256 19.6664 24.8855C19.3271 24.8528 18.9256 24.8004 18.4601 24.7397C18.3715 24.7281 18.2804 24.7162 18.1871 24.7041C17.0378 24.5552 15.5928 24.38 14.0934 24.38H13.8834C12.3832 24.38 10.9375 24.5583 9.7888 24.7086C9.7066 24.7194 9.62621 24.73 9.54764 24.7403C9.06895 24.8033 8.65741 24.8574 8.3114 24.8903C7.89022 24.9304 7.66658 24.927 7.57523 24.9095C6.41544 24.6499 5.73145 23.7679 5.43695 22.7789C5.31486 21.8591 5.60552 21.0464 6.14652 20.2483C6.64562 19.5121 7.31449 18.8474 8.00738 18.1589C8.10085 18.066 8.19476 17.9727 8.28875 17.8787L8.30826 17.8592L8.32629 17.8383C8.98611 17.0735 9.57604 16.3782 10.181 15.6652C10.5178 15.2683 10.8592 14.8659 11.2199 14.443C11.7445 13.8406 12.3131 13.3366 12.9367 13.1228L12.9367 13.1229L12.9497 13.1182C13.0402 13.0853 13.1277 13.0617 13.2126 13.0462L13.2126 13.0463L13.2201 13.0448C13.4414 13.0023 13.6842 13 14.0001 13C14.312 13 14.5633 13.0016 14.7836 13.036C14.866 13.0514 14.951 13.0746 15.0388 13.1065L15.0387 13.1066L15.0518 13.1111C15.6786 13.326 16.2601 13.8343 16.7658 14.428L16.7658 14.428L16.7689 14.4316C17.4253 15.1924 18.0077 15.8789 18.6095 16.5882C18.9479 16.987 19.2923 17.3929 19.6595 17.8234Z" stroke="black" stroke-width="1.5"/>
</svg>
