<svg width="24" height="24" viewBox="0 0 24 24" fill="none" xmlns="http://www.w3.org/2000/svg">
<path d="M16.274 15.092C16.9219 15.488 17.2632 15.937 17.2632 16.3947C17.2632 16.8523 16.9219 17.3013 16.274 17.6973C15.6262 18.0933 14.6944 18.4224 13.5724 18.6508C12.4504 18.8792 11.1773 18.9999 9.88158 18.9999C8.58589 18.9999 7.31279 18.8792 6.19079 18.6508C5.06879 18.4224 4.13697 18.0933 3.48913 17.6973C2.84129 17.3013 2.5 16.8523 2.5 16.3947C2.5 15.937 2.84129 15.488 3.48913 15.092" stroke="#EC6568" stroke-linecap="round"/>
<path d="M16.3947 9.01316C16.3947 13.3709 11.6288 16.3105 10.2506 17.0686C10.1379 17.1318 10.0108 17.1649 9.88157 17.1649C9.75233 17.1649 9.62525 17.1318 9.51249 17.0686C8.1343 16.3105 3.36841 13.3709 3.36841 9.01316C3.36841 5.10526 6.52425 2.5 9.88157 2.5C13.3552 2.5 16.3947 5.10526 16.3947 9.01316Z" stroke="#EC6568"/>
<path d="M9.88151 12.0526C11.5602 12.0526 12.921 10.6918 12.921 9.01311C12.921 7.33445 11.5602 5.97363 9.88151 5.97363C8.20286 5.97363 6.84204 7.33445 6.84204 9.01311C6.84204 10.6918 8.20286 12.0526 9.88151 12.0526Z" stroke="#EC6568"/>
</svg>
