<svg width="35" height="35" viewBox="0 0 35 35" fill="none" xmlns="http://www.w3.org/2000/svg">
<g clip-path="url(#clip0_480_680)">
<path fill-rule="evenodd" clip-rule="evenodd" d="M13.125 18.9583C13.8985 18.9583 14.6404 19.2656 15.1874 19.8126C15.7344 20.3596 16.0417 21.1015 16.0417 21.875V27.7083C16.0417 28.4819 15.7344 29.2237 15.1874 29.7707C14.6404 30.3177 13.8985 30.625 13.125 30.625H7.29167C6.51812 30.625 5.77625 30.3177 5.22927 29.7707C4.68229 29.2237 4.375 28.4819 4.375 27.7083V21.875C4.375 21.1015 4.68229 20.3596 5.22927 19.8126C5.77625 19.2656 6.51812 18.9583 7.29167 18.9583H13.125ZM27.7083 18.9583C28.4819 18.9583 29.2237 19.2656 29.7707 19.8126C30.3177 20.3596 30.625 21.1015 30.625 21.875V27.7083C30.625 28.4819 30.3177 29.2237 29.7707 29.7707C29.2237 30.3177 28.4819 30.625 27.7083 30.625H21.875C21.1015 30.625 20.3596 30.3177 19.8126 29.7707C19.2656 29.2237 18.9583 28.4819 18.9583 27.7083V21.875C18.9583 21.1015 19.2656 20.3596 19.8126 19.8126C20.3596 19.2656 21.1015 18.9583 21.875 18.9583H27.7083ZM13.125 4.375C13.8985 4.375 14.6404 4.68229 15.1874 5.22927C15.7344 5.77625 16.0417 6.51812 16.0417 7.29167V13.125C16.0417 13.8985 15.7344 14.6404 15.1874 15.1874C14.6404 15.7344 13.8985 16.0417 13.125 16.0417H7.29167C6.51812 16.0417 5.77625 15.7344 5.22927 15.1874C4.68229 14.6404 4.375 13.8985 4.375 13.125V7.29167C4.375 6.51812 4.68229 5.77625 5.22927 5.22927C5.77625 4.68229 6.51812 4.375 7.29167 4.375H13.125ZM27.7083 4.375C28.4819 4.375 29.2237 4.68229 29.7707 5.22927C30.3177 5.77625 30.625 6.51812 30.625 7.29167V13.125C30.625 13.8985 30.3177 14.6404 29.7707 15.1874C29.2237 15.7344 28.4819 16.0417 27.7083 16.0417H21.875C21.1015 16.0417 20.3596 15.7344 19.8126 15.1874C19.2656 14.6404 18.9583 13.8985 18.9583 13.125V7.29167C18.9583 6.51812 19.2656 5.77625 19.8126 5.22927C20.3596 4.68229 21.1015 4.375 21.875 4.375H27.7083Z" fill="white"/>
</g>
<defs>
<clipPath id="clip0_480_680">
<rect width="35" height="35" fill="white"/>
</clipPath>
</defs>
</svg>
