<svg width="100" height="100" viewBox="0 0 100 100" fill="none" xmlns="http://www.w3.org/2000/svg">
<path d="M15.5725 70C15.5725 68.4775 16.395 67.685 17.8875 67.685C19.32 67.685 20.1375 68.72 20.235 70.975C20.2305 71.0281 20.2376 71.0816 20.2558 71.1317C20.274 71.1818 20.3029 71.2274 20.3405 71.2652C20.3781 71.303 20.4234 71.3322 20.4734 71.3507C20.5234 71.3692 20.5768 71.3767 20.63 71.3725H22.55C22.6038 71.3794 22.6586 71.374 22.71 71.3564C22.7613 71.3389 22.808 71.3098 22.8464 71.2714C22.8848 71.233 22.9139 71.1864 22.9314 71.135C22.9489 71.0836 22.9544 71.0288 22.9475 70.975C22.825 67.41 20.845 65.125 17.8575 65.125C14.87 65.125 12.83 67.0225 12.83 70C12.83 75.8525 20.4775 77.285 20.4775 82C20.4775 83.645 19.625 84.5275 18.01 84.5275C16.395 84.5275 15.48 83.37 15.42 81.055C15.4111 80.9505 15.3627 80.8532 15.2847 80.7831C15.2067 80.713 15.1049 80.6752 15 80.6775H13.0725C13.0147 80.6707 12.9561 80.677 12.9012 80.6961C12.8462 80.7152 12.7962 80.7465 12.7551 80.7876C12.714 80.8287 12.6827 80.8787 12.6636 80.9337C12.6445 80.9886 12.6382 81.0472 12.645 81.105C12.7675 84.7925 14.81 87.14 17.98 87.14C21.15 87.14 23.25 85.1575 23.25 82.02C23.25 75.8025 15.5725 74.37 15.5725 70Z" fill="#12110B"/>
<path d="M26.9125 66.5C26.4961 66.5 26.0968 66.6654 25.8024 66.9598C25.5079 67.2543 25.3425 67.6536 25.3425 68.07C25.3425 68.4864 25.5079 68.8857 25.8024 69.1802C26.0968 69.4746 26.4961 69.64 26.9125 69.64C27.3271 69.6388 27.7248 69.4754 28.0205 69.1848C28.3162 68.8943 28.4865 68.4995 28.495 68.085C28.4991 67.876 28.461 67.6682 28.3829 67.4743C28.3048 67.2803 28.1885 67.104 28.0407 66.9561C27.893 66.8081 27.717 66.6915 27.5231 66.6131C27.3293 66.5347 27.1216 66.4963 26.9125 66.5Z" fill="#12110B"/>
<path d="M27.7949 71.5649H26.0274C25.9721 71.5574 25.9158 71.5623 25.8626 71.5792C25.8094 71.5961 25.7606 71.6245 25.7197 71.6626C25.6788 71.7006 25.6468 71.7472 25.6261 71.7991C25.6054 71.8509 25.5965 71.9067 25.5999 71.9624V86.3774C25.5931 86.4352 25.5995 86.4938 25.6186 86.5488C25.6376 86.6038 25.6689 86.6537 25.7101 86.6948C25.7512 86.736 25.8011 86.7673 25.8561 86.7863C25.9111 86.8054 25.9697 86.8118 26.0274 86.8049H27.7949C27.8527 86.8118 27.9113 86.8054 27.9663 86.7863C28.0213 86.7673 28.0712 86.736 28.1123 86.6948C28.1535 86.6537 28.1848 86.6038 28.2038 86.5488C28.2229 86.4938 28.2293 86.4352 28.2224 86.3774V71.9624C28.2259 71.9067 28.217 71.8509 28.1963 71.7991C28.1756 71.7472 28.1436 71.7006 28.1027 71.6626C28.0618 71.6245 28.013 71.5961 27.9598 71.5792C27.9066 71.5623 27.8503 71.5574 27.7949 71.5649Z" fill="#12110B"/>
<path d="M40.0175 65.4701H38.25C38.1951 65.463 38.1393 65.4681 38.0866 65.4851C38.0339 65.502 37.9855 65.5303 37.9449 65.568C37.9044 65.6057 37.8726 65.6518 37.8519 65.7032C37.8312 65.7545 37.822 65.8098 37.825 65.8651V72.3651C37.5124 72.0024 37.1235 71.7132 36.6861 71.5183C36.2488 71.3234 35.7737 71.2275 35.295 71.2376C32.545 71.2376 30.755 73.3101 30.755 76.2051V82.1776C30.755 85.0726 32.675 87.1476 35.6 87.1476C38.525 87.1476 40.4475 85.0726 40.4475 82.1776V65.8651C40.4506 65.8093 40.4414 65.7535 40.4204 65.7018C40.3994 65.65 40.3671 65.6036 40.326 65.5658C40.2849 65.528 40.2358 65.4998 40.1825 65.4833C40.1292 65.4667 40.0728 65.4622 40.0175 65.4701ZM37.8225 82.2626C37.8225 83.6951 37 84.6401 35.5975 84.6401C34.195 84.6401 33.3475 83.6951 33.3475 82.2626V76.1051C33.3475 74.6726 34.2 73.7301 35.5975 73.7301C36.995 73.7301 37.8225 74.6726 37.8225 76.1051V82.2626Z" fill="#12110B"/>
<path d="M47.8525 80.6776C50.7475 80.6776 52.6975 78.7576 52.6975 76.0751C52.6975 73.2726 50.6975 71.2301 47.82 71.2601C44.895 71.2601 43.005 73.2601 42.975 76.1676V82.1401C42.975 85.1276 44.925 87.1076 47.79 87.1076C50.54 87.1076 52.4525 85.2176 52.605 82.3851C52.6095 82.332 52.6024 82.2785 52.5842 82.2284C52.566 82.1783 52.5371 82.1327 52.4995 82.0949C52.4619 82.0571 52.4165 82.0279 52.3665 82.0094C52.3166 81.9908 52.2631 81.9834 52.21 81.9876H50.41C50.3553 81.9826 50.3001 81.9893 50.2482 82.0072C50.1962 82.025 50.1486 82.0536 50.1085 82.0912C50.0683 82.1287 50.0366 82.1743 50.0153 82.2249C49.994 82.2756 49.9837 82.3302 49.985 82.3851C49.8925 83.7251 49.07 84.6351 47.82 84.6351C46.4175 84.6351 45.5975 83.6601 45.5975 82.2576V80.6726L47.8525 80.6776ZM45.6025 76.1376C45.6025 74.6726 46.3925 73.7301 47.825 73.7301C49.2575 73.7301 50.075 74.6726 50.075 76.1376C50.075 77.4176 49.2525 78.3001 47.8525 78.3001H45.6025V76.1376Z" fill="#12110B"/>
<path d="M62.5425 66.5001C62.1261 66.5001 61.7268 66.6655 61.4324 66.9599C61.1379 67.2543 60.9725 67.6537 60.9725 68.0701C60.9725 68.4864 61.1379 68.8858 61.4324 69.1802C61.7268 69.4746 62.1261 69.6401 62.5425 69.6401C62.9574 69.6388 63.3553 69.4756 63.6514 69.185C63.9476 68.8945 64.1184 68.4998 64.1275 68.0851C64.1316 67.8758 64.0934 67.6679 64.0152 67.4737C63.937 67.2796 63.8204 67.1032 63.6724 66.9552C63.5244 66.8072 63.348 66.6906 63.1539 66.6124C62.9597 66.5342 62.7518 66.496 62.5425 66.5001Z" fill="#12110B"/>
<path d="M63.425 71.5649H61.6575C61.6023 71.5578 61.5463 71.563 61.4934 71.5801C61.4405 71.5971 61.392 71.6257 61.3514 71.6636C61.3108 71.7016 61.2791 71.7481 61.2585 71.7998C61.238 71.8514 61.2291 71.907 61.2325 71.9624V86.3774C61.2257 86.435 61.2321 86.4933 61.251 86.5481C61.2699 86.6029 61.301 86.6527 61.3418 86.6937C61.3827 86.7348 61.4323 86.7662 61.4869 86.7854C61.5416 86.8047 61.5999 86.8114 61.6575 86.8049H63.425C63.4828 86.8118 63.5413 86.8054 63.5963 86.7863C63.6513 86.7673 63.7012 86.736 63.7424 86.6948C63.7835 86.6537 63.8148 86.6038 63.8339 86.5488C63.8529 86.4938 63.8593 86.4352 63.8525 86.3774V71.9624C63.8559 71.9067 63.847 71.8509 63.8263 71.7991C63.8056 71.7472 63.7737 71.7006 63.7328 71.6626C63.6919 71.6245 63.6431 71.5961 63.5898 71.5792C63.5366 71.5623 63.4803 71.5574 63.425 71.5649Z" fill="#12110B"/>
<path d="M75.62 81.8375H73.79C73.54 81.8375 73.425 81.9575 73.3925 82.2625C73.2725 83.7625 72.45 84.64 71.17 84.64C69.7975 84.64 68.975 83.695 68.975 82.2625V76.105C68.975 74.6725 69.7975 73.73 71.14 73.73C72.39 73.73 73.14 74.5225 73.2725 75.8925C73.2713 75.9474 73.2816 76.002 73.3029 76.0526C73.3242 76.1033 73.3559 76.1489 73.396 76.1864C73.4362 76.2239 73.4838 76.2526 73.5357 76.2704C73.5877 76.2883 73.6428 76.2949 73.6975 76.29H75.5C75.775 76.29 75.9275 76.1375 75.895 75.8925C75.7125 73.12 73.895 71.23 71.145 71.23C68.28 71.23 66.3575 73.3025 66.3575 76.1975V82.17C66.3575 85.065 68.31 87.14 71.205 87.14C73.9775 87.14 75.8375 85.1575 76.02 82.2925C76.015 82 75.8625 81.8375 75.62 81.8375Z" fill="#12110B"/>
<path d="M87.325 71.565H85.4325C85.3302 71.56 85.2288 71.5865 85.142 71.6411C85.0553 71.6957 84.9874 71.7755 84.9475 71.87C84.1975 73.305 82.1725 77.7225 82.1725 77.7225H80.71V65.865C80.7131 65.8094 80.7039 65.7539 80.683 65.7024C80.6621 65.6508 80.6301 65.6045 80.5893 65.5668C80.5484 65.529 80.4998 65.5008 80.4467 65.4841C80.3937 65.4673 80.3376 65.4625 80.2825 65.47H78.515C78.4599 65.4625 78.4038 65.4673 78.3508 65.4841C78.2978 65.5008 78.2491 65.529 78.2083 65.5668C78.1674 65.6045 78.1354 65.6508 78.1145 65.7024C78.0937 65.7539 78.0844 65.8094 78.0875 65.865V86.3775C78.0812 86.4351 78.0879 86.4935 78.1071 86.5483C78.1264 86.603 78.1577 86.6527 78.1987 86.6938C78.2397 86.7348 78.2895 86.7661 78.3442 86.7853C78.399 86.8046 78.4573 86.8113 78.515 86.805H80.2825C80.3403 86.8118 80.3989 86.8054 80.4539 86.7863C80.5088 86.7673 80.5588 86.736 80.5999 86.6948C80.6411 86.6537 80.6723 86.6038 80.6914 86.5488C80.7105 86.4938 80.7168 86.4352 80.71 86.3775V80.19H82.54C83.91 80.19 84.855 81.075 84.855 82.44V86.3725C84.8476 86.4276 84.8524 86.4836 84.8691 86.5367C84.8859 86.5897 84.9141 86.6384 84.9519 86.6792C84.9896 86.7201 85.0359 86.7521 85.0874 86.7729C85.139 86.7938 85.1945 86.803 85.25 86.8H87.05C87.1055 86.803 87.1611 86.7938 87.2126 86.7729C87.2642 86.7521 87.3104 86.7201 87.3482 86.6792C87.3859 86.6384 87.4142 86.5897 87.4309 86.5367C87.4477 86.4836 87.4525 86.4276 87.445 86.3725V82.5375C87.445 80.495 86.3475 78.91 84.6725 78.24L87.69 72.0525C87.81 71.75 87.6275 71.565 87.325 71.565Z" fill="#12110B"/>
<path d="M57.7825 52.67C58.0652 52.3789 58.2854 52.0332 58.4299 51.6541C58.5743 51.275 58.6399 50.8703 58.6225 50.465C58.5725 48.41 55.98 47.49 53.435 47.49C50.785 47.49 49.0025 48.4225 48.6625 49.99C48.5815 50.3263 48.5708 50.6758 48.631 51.0165C48.6913 51.3572 48.8211 51.6818 49.0125 51.97C49.605 52.845 50.6725 53.2375 51.6075 53.4575C51.6828 54.1904 51.9135 54.8989 52.2843 55.5356C52.655 56.1724 53.1573 56.7227 53.7575 57.15C54.0147 57.3206 54.3279 57.3852 54.6316 57.3305C54.9353 57.2759 55.2062 57.106 55.3878 56.8564C55.5693 56.6068 55.6475 56.2968 55.606 55.991C55.5645 55.6852 55.4065 55.4072 55.165 55.215C54.6747 54.868 54.3084 54.3729 54.12 53.8025C54.2225 53.8025 54.3325 53.8175 54.43 53.8175C55.9125 53.815 57.04 53.43 57.7825 52.67Z" fill="#12110B"/>
<path d="M60.7001 34.37C60.3842 34.3564 60.0757 34.468 59.8417 34.6805C59.6076 34.893 59.4669 35.1893 59.4501 35.505L59.3151 38.155C59.3073 38.3115 59.3305 38.4679 59.3832 38.6154C59.4359 38.7629 59.5172 38.8985 59.6224 39.0146C59.7275 39.1307 59.8545 39.2249 59.9961 39.2919C60.1377 39.3589 60.2911 39.3973 60.4476 39.405H60.5001C60.8067 39.4041 61.1012 39.2857 61.3231 39.074C61.545 38.8624 61.6772 38.5737 61.6926 38.2675L61.8276 35.6175C61.8419 35.303 61.7315 34.9955 61.5203 34.7619C61.3092 34.5283 61.0144 34.3875 60.7001 34.37Z" fill="#12110B"/>
<path d="M70.775 34.6074C70.4597 34.6074 70.1573 34.7319 69.9335 34.9539C69.7097 35.1758 69.5826 35.4772 69.58 35.7924L69.555 38.4449C69.5529 38.7619 69.6764 39.0668 69.8985 39.293C70.1205 39.5193 70.423 39.6485 70.74 39.6524C71.0554 39.6524 71.3581 39.528 71.5823 39.3061C71.8065 39.0842 71.9342 38.7828 71.9375 38.4674L71.9625 35.8124C71.9638 35.6555 71.9342 35.4998 71.8753 35.3544C71.8165 35.2089 71.7296 35.0764 71.6195 34.9645C71.5095 34.8526 71.3785 34.7635 71.234 34.7022C71.0895 34.6409 70.9344 34.6087 70.7775 34.6074H70.775Z" fill="#12110B"/>
<path d="M83.1176 10.6075C82.3676 10.6075 80.1176 10.6075 76.9976 18.235C75.4951 17.7083 73.9232 17.4059 72.3326 17.3375C71.1651 15.165 68.4526 10.5325 66.2301 9.83747C65.9633 9.7474 65.6811 9.71248 65.4005 9.73483C65.1198 9.75718 64.8467 9.83633 64.5976 9.96747C62.3876 11.16 61.5301 17.7175 61.2376 21.0075C60.5659 21.5542 59.9389 22.1536 59.3626 22.8L46.0001 37.37C43.5396 40.1441 42.0901 43.669 41.8872 47.3715C41.6843 51.0739 42.74 54.7361 44.8826 57.7625H21.6326C20.3576 56.605 15.8251 51.935 19.6326 46.915C19.7888 46.7097 19.8745 46.4593 19.8767 46.2013C19.8789 45.9433 19.7975 45.6915 19.6447 45.4836C19.4919 45.2756 19.276 45.1228 19.0291 45.0478C18.7822 44.9728 18.5177 44.9797 18.2751 45.0675C18.0251 45.155 12.3826 47.2325 10.6251 52.0675C9.64256 54.76 10.0676 57.7125 11.8751 60.8375C12.0345 61.1116 12.2964 61.3112 12.603 61.3923C12.9096 61.4734 13.2359 61.4294 13.5101 61.27C13.7842 61.1105 13.9838 60.8487 14.0649 60.542C14.146 60.2354 14.102 59.9091 13.9426 59.635C12.5001 57.155 12.1351 54.885 12.8551 52.8975C13.4726 51.22 14.7501 49.9425 16.0001 49.0325C14.8726 53.735 18.1176 57.995 20.4601 59.8875C20.672 60.0599 20.9368 60.1544 21.2101 60.155H46.9676C47.0976 60.2775 47.2176 60.405 47.3601 60.5225C49.5807 62.5033 52.3018 63.8374 55.2276 64.38V86.38C55.2207 86.4378 55.2271 86.4963 55.2462 86.5513C55.2652 86.6063 55.2965 86.6562 55.3377 86.6974C55.3788 86.7385 55.4287 86.7698 55.4837 86.7889C55.5387 86.8079 55.5973 86.8143 55.6551 86.8075H57.4226C57.4802 86.8138 57.5386 86.8071 57.5934 86.7879C57.6481 86.7686 57.6978 86.7373 57.7389 86.6963C57.7799 86.6553 57.8112 86.6055 57.8305 86.5508C57.8497 86.496 57.8564 86.4377 57.8501 86.38V64.655H58.2476C60.5659 64.6591 62.8588 64.1709 64.9744 63.2228C67.09 62.2747 68.9803 60.8881 70.5201 59.155L76.4351 52.3575C76.5381 52.239 76.6169 52.1013 76.6668 51.9523C76.7167 51.8034 76.7367 51.6461 76.7258 51.4894C76.7149 51.3327 76.6732 51.1797 76.6032 51.0391C76.5331 50.8985 76.4361 50.7731 76.3176 50.67C76.199 50.5669 76.0614 50.4882 75.9124 50.4383C75.7635 50.3884 75.6062 50.3683 75.4495 50.3792C75.2928 50.3901 75.1398 50.4318 74.9992 50.5019C74.8586 50.5719 74.7331 50.669 74.6301 50.7875L71.8801 53.94C71.8951 53.7875 71.9076 53.635 71.9151 53.4825C71.9151 53.2475 71.9151 53.01 71.9151 52.7775C71.9006 52.382 71.8605 51.9878 71.7951 51.5975C71.7499 51.3126 71.689 51.0305 71.6126 50.7525C71.5138 50.3769 71.3807 50.0112 71.2151 49.66C71.0889 49.3948 70.9356 49.1435 70.7576 48.91C70.694 48.8268 70.6256 48.7475 70.5526 48.6725L70.3201 48.4225H70.3001C69.9907 48.1322 69.6223 47.9122 69.2201 47.7775C68.839 47.6572 68.4359 47.6231 68.0401 47.6775C67.6871 47.7236 67.3432 47.8231 67.0201 47.9725C66.8307 48.0571 66.6463 48.1522 66.4676 48.2575C66.3218 48.3441 66.1808 48.4384 66.0451 48.54C65.9215 48.629 65.8037 48.7259 65.6926 48.83C65.3594 49.1255 65.1022 49.4967 64.9426 49.9125C64.8141 50.2718 64.7721 50.6564 64.8201 51.035C64.8784 51.4523 64.9893 51.8605 65.1501 52.25C65.2651 52.5575 65.4001 52.8525 65.5426 53.1525L65.6126 53.3C65.8451 53.8 66.0801 54.3 66.3001 54.815L66.3326 54.885C66.4251 55.095 66.5176 55.3075 66.5826 55.525C66.8182 56.1994 66.9562 56.904 66.9926 57.6175C67.007 57.9059 67.0011 58.1949 66.9751 58.4825C66.9651 58.5884 66.9785 58.6953 67.0144 58.7955C67.0503 58.8957 67.1077 58.9869 67.1826 59.0625C64.6014 61.1934 61.3436 62.3315 57.997 62.2715C54.6505 62.2114 51.4356 60.9571 48.9326 58.735C48.7076 58.535 48.4926 58.325 48.2826 58.1125C45.7874 55.5816 44.3465 52.1976 44.2514 48.6448C44.1562 45.0921 45.4139 41.6358 47.7701 38.975L61.1226 24.41C61.6315 23.837 62.1867 23.3069 62.7826 22.825C62.8306 22.784 62.8757 22.7397 62.9176 22.6925C63.0979 22.5993 63.2517 22.4619 63.3645 22.2931C63.4773 22.1244 63.5454 21.9297 63.5626 21.7275C63.9176 17.3325 64.8626 13.0025 65.6201 12.17C66.5651 12.595 68.7876 15.705 70.5251 19.0675C70.6262 19.2619 70.7787 19.4249 70.9661 19.5386C71.1534 19.6524 71.3684 19.7125 71.5876 19.7125C73.5116 19.7104 75.4152 20.108 77.1776 20.88C77.3256 20.9448 77.4853 20.9788 77.647 20.9801C77.8086 20.9814 77.9688 20.9499 78.1179 20.8875C78.267 20.8251 78.4019 20.7331 78.5144 20.6171C78.6269 20.5011 78.7148 20.3634 78.7726 20.2125C81.0226 14.3225 82.6951 12.9975 83.1026 12.9975C83.1451 12.9975 84.1651 13.0525 84.8526 17.7925C85.3526 21.17 85.5801 26.23 85.5801 33.72V62.6275C85.5727 62.7892 85.5981 62.9507 85.6549 63.1023C85.7117 63.2538 85.7986 63.3923 85.9104 63.5094C86.0222 63.6264 86.1566 63.7196 86.3054 63.7832C86.4543 63.8469 86.6144 63.8797 86.7763 63.8797C86.9382 63.8797 87.0984 63.8469 87.2472 63.7832C87.396 63.7196 87.5304 63.6264 87.6422 63.5094C87.754 63.3923 87.8409 63.2538 87.8977 63.1023C87.9545 62.9507 87.98 62.7892 87.9726 62.6275V33.72C88.0001 16.4375 86.7676 10.6075 83.1176 10.6075Z" fill="#12110B"/>
<path fill-rule="evenodd" clip-rule="evenodd" d="M70.73 51.5675C70.6478 51.1024 70.5093 50.6491 70.3175 50.2175C70.2099 49.974 70.074 49.7441 69.9125 49.5325C69.7444 49.3054 69.5389 49.1084 69.305 48.95C69.0551 48.7823 68.7632 48.6879 68.4625 48.6775C68.1963 48.6733 67.9318 48.7191 67.6825 48.8125C67.5555 48.8549 67.4318 48.9067 67.3125 48.9675C67.0869 49.0782 66.8726 49.2105 66.6725 49.3625C66.4694 49.5106 66.2906 49.6894 66.1425 49.8925C65.966 50.1273 65.8672 50.4114 65.86 50.705C65.8618 50.9199 65.8929 51.1335 65.9525 51.34C66.0529 51.7089 66.1868 52.0679 66.3525 52.4125C66.6425 53.0375 66.935 53.6625 67.215 54.29C67.3325 54.5575 67.465 54.8225 67.5525 55.1C67.7687 55.7019 67.9188 56.3256 68 56.96C68.0416 57.3084 68.0608 57.6591 68.0575 58.01V58.04C68.1225 57.995 68.185 57.9575 68.245 57.9125C68.3788 57.8209 68.5066 57.7207 68.6275 57.6125L68.6525 57.59C68.7104 57.5424 68.7655 57.4915 68.8175 57.4375C68.8474 57.4003 68.8886 57.3739 68.935 57.3625C68.9633 57.3546 68.9895 57.3406 69.0119 57.3216C69.0344 57.3027 69.0525 57.2791 69.065 57.2525C69.1754 57.0493 69.2698 56.8378 69.3475 56.62C69.4178 56.4513 69.4722 56.2763 69.51 56.0975C69.5458 55.8744 69.5541 55.6477 69.535 55.4225C69.4899 54.9678 69.3926 54.5199 69.245 54.0875C69.2025 53.96 69.1575 53.8375 69.1125 53.705C69.0974 53.6625 69.0991 53.6158 69.1172 53.5745C69.1353 53.5331 69.1685 53.5003 69.21 53.4825C69.2333 53.4727 69.2583 53.4677 69.2835 53.4677C69.3087 53.4677 69.3337 53.4728 69.357 53.4826C69.3803 53.4923 69.4014 53.5067 69.4191 53.5247C69.4367 53.5427 69.4507 53.5641 69.46 53.5875C69.5325 53.795 69.605 54.005 69.6675 54.2175C69.7826 54.5845 69.8597 54.9623 69.8975 55.345C69.9338 55.6565 69.9161 55.972 69.845 56.2775C69.7882 56.4824 69.7189 56.6836 69.6375 56.88C69.6375 56.88 69.6375 56.9 69.6225 56.915C69.6762 56.8688 69.7263 56.8187 69.7725 56.765C69.9244 56.5958 70.0561 56.4096 70.165 56.21C70.305 55.9557 70.4205 55.6887 70.51 55.4125C70.6437 55.0096 70.7407 54.5954 70.8 54.175C70.857 53.7609 70.8796 53.3428 70.8675 52.925C70.8582 52.4695 70.8122 52.0156 70.73 51.5675Z" fill="#E85558"/>
</svg>
