<svg width="59" height="57" viewBox="0 0 59 57" fill="none" xmlns="http://www.w3.org/2000/svg">
<path d="M43.4074 55.4854C42.5006 55.4848 41.6078 55.2616 40.8074 54.8354L31.7574 50.1154C31.0198 49.7152 30.1965 49.4991 29.3574 49.4854C28.518 49.4823 27.6905 49.6849 26.9474 50.0754L17.8874 54.8354C16.9666 55.3221 15.9277 55.5408 14.8888 55.4667C13.8499 55.3927 12.8526 55.0288 12.0101 54.4165C11.1676 53.8041 10.5136 52.9678 10.1225 52.0025C9.73139 51.0372 9.61876 49.9815 9.79741 48.9554L11.5274 38.8754C11.6698 38.0445 11.6076 37.1914 11.3462 36.3899C11.0849 35.5885 10.6322 34.8627 10.0274 34.2754L2.68741 27.1154C1.94122 26.3889 1.41324 25.4681 1.16321 24.4571C0.913168 23.4461 0.951053 22.3853 1.27258 21.3947C1.5941 20.4042 2.18642 19.5233 2.98254 18.8519C3.77866 18.1805 4.74679 17.7452 5.77741 17.5954L15.8974 16.1154C16.7306 15.9947 17.5219 15.6731 18.2031 15.1783C18.8843 14.6835 19.4349 14.0304 19.8074 13.2754L24.3574 4.11543C24.8163 3.18067 25.528 2.39327 26.4118 1.84259C27.2956 1.29191 28.3161 1 29.3574 1C30.3987 1 31.4192 1.29191 32.303 1.84259C33.1868 2.39327 33.8985 3.18067 34.3574 4.11543L38.8874 13.2854C39.2586 14.0366 39.8065 14.6865 40.484 15.1794C41.1615 15.6723 41.9485 15.9935 42.7774 16.1154L52.8974 17.5854C53.9322 17.7302 54.9054 18.1632 55.7058 18.8349C56.5063 19.5065 57.1016 20.3898 57.4239 21.3837C57.7462 22.3777 57.7824 23.4422 57.5284 24.4558C57.2743 25.4693 56.7404 26.391 55.9874 27.1154L48.6674 34.2554C48.0626 34.8427 47.6099 35.5685 47.3486 36.3699C47.0872 37.1714 47.025 38.0245 47.1674 38.8554L48.8974 48.9354C49.0386 49.7338 49.0024 50.5534 48.7916 51.3362C48.5808 52.119 48.2004 52.8459 47.6774 53.4654C47.1543 54.0897 46.5012 54.5922 45.7636 54.9377C45.026 55.2831 44.2219 55.4633 43.4074 55.4654V55.4854Z" stroke="#FCFCFC" stroke-width="2" stroke-linejoin="round"/>
</svg>
