<svg width="18" height="19" viewBox="0 0 18 19" fill="none" xmlns="http://www.w3.org/2000/svg">
<path d="M11 0.828857H17V7.04633H11V0.828857Z" stroke="#E85558" stroke-width="1.6" stroke-linecap="round" stroke-linejoin="round"/>
<path d="M1 11.1913H7V17.4088H1V11.1913Z" stroke="#E85558" stroke-width="1.6" stroke-linecap="round" stroke-linejoin="round"/>
<path d="M11 14.3C11 15.1245 11.3161 15.9152 11.8787 16.4982C12.4413 17.0812 13.2044 17.4088 14 17.4088C14.7956 17.4088 15.5587 17.0812 16.1213 16.4982C16.6839 15.9152 17 15.1245 17 14.3C17 13.4756 16.6839 12.6848 16.1213 12.1018C15.5587 11.5188 14.7956 11.1913 14 11.1913C13.2044 11.1913 12.4413 11.5188 11.8787 12.1018C11.3161 12.6848 11 13.4756 11 14.3Z" stroke="#E85558" stroke-width="1.6" stroke-linecap="round" stroke-linejoin="round"/>
<path d="M1 3.93759C1 4.34584 1.0776 4.75008 1.22836 5.12725C1.37913 5.50442 1.6001 5.84713 1.87868 6.1358C2.15726 6.42447 2.48797 6.65346 2.85195 6.80969C3.21593 6.96592 3.60603 7.04633 4 7.04633C4.39397 7.04633 4.78407 6.96592 5.14805 6.80969C5.51203 6.65346 5.84274 6.42447 6.12132 6.1358C6.3999 5.84713 6.62087 5.50442 6.77164 5.12725C6.9224 4.75008 7 4.34584 7 3.93759C7 3.52935 6.9224 3.1251 6.77164 2.74793C6.62087 2.37076 6.3999 2.02806 6.12132 1.73938C5.84274 1.45071 5.51203 1.22172 5.14805 1.0655C4.78407 0.909267 4.39397 0.828857 4 0.828857C3.60603 0.828857 3.21593 0.909267 2.85195 1.0655C2.48797 1.22172 2.15726 1.45071 1.87868 1.73938C1.6001 2.02806 1.37913 2.37076 1.22836 2.74793C1.0776 3.1251 1 3.52935 1 3.93759Z" stroke="#E85558" stroke-width="1.6" stroke-linecap="round" stroke-linejoin="round"/>
</svg>
