<svg width="27" height="24" viewBox="0 0 27 24" fill="none" xmlns="http://www.w3.org/2000/svg">
<path d="M24.0007 12.7627L14.0007 22.6667L4.00073 12.7627C3.34113 12.1208 2.82158 11.3493 2.47479 10.4968C2.128 9.64433 1.96148 8.72926 1.98571 7.80924C2.00994 6.88921 2.22441 5.98417 2.6156 5.15111C3.0068 4.31804 3.56624 3.575 4.25871 2.96876C4.95118 2.36253 5.76167 1.90624 6.63914 1.62863C7.51662 1.35102 8.44207 1.2581 9.35722 1.35573C10.2724 1.45335 11.1574 1.7394 11.9566 2.19587C12.7557 2.65233 13.4517 3.26933 14.0007 4.00799C14.5521 3.27469 15.2489 2.66309 16.0475 2.21146C16.8461 1.75984 17.7294 1.47792 18.642 1.38335C19.5546 1.28878 20.4768 1.38359 21.3511 1.66185C22.2253 1.94011 23.0328 2.39582 23.7228 3.00048C24.4128 3.60513 24.9706 4.3457 25.3613 5.17585C25.7519 6.00599 25.9671 6.90784 25.9931 7.82494C26.0192 8.74204 25.8557 9.65465 25.5129 10.5057C25.1701 11.3567 24.6553 12.1278 24.0007 12.7707" stroke="black" stroke-width="2" stroke-linecap="round" stroke-linejoin="round"/>
</svg>
