<svg width="24" height="26" viewBox="0 0 24 26" fill="none" xmlns="http://www.w3.org/2000/svg">
<path d="M17.333 1V6.33333M6.66634 1V6.33333M1.33301 11.6667H22.6663M5.33301 15.6667H5.35034M9.34603 15.6667H9.3527M13.346 15.6667H13.3527M17.3525 15.6667H17.3592M13.3525 19.6667H13.3592M5.34603 19.6667H5.35269M9.34603 19.6667H9.3527M1.33301 6.33333C1.33301 5.62609 1.61396 4.94781 2.11406 4.44772C2.61415 3.94762 3.29243 3.66667 3.99967 3.66667H19.9997C20.7069 3.66667 21.3852 3.94762 21.8853 4.44772C22.3854 4.94781 22.6663 5.62609 22.6663 6.33333V22.3333C22.6663 23.0406 22.3854 23.7189 21.8853 24.219C21.3852 24.719 20.7069 25 19.9997 25H3.99967C3.29243 25 2.61415 24.719 2.11406 24.219C1.61396 23.7189 1.33301 23.0406 1.33301 22.3333V6.33333Z" stroke="black" stroke-width="2" stroke-linecap="round" stroke-linejoin="round"/>
</svg>
