<svg width="24" height="24" viewBox="0 0 24 24" fill="none" xmlns="http://www.w3.org/2000/svg">
<path d="M18.6663 6.66659V2.66659C18.6663 2.31296 18.5259 1.97383 18.2758 1.72378C18.0258 1.47373 17.6866 1.33325 17.333 1.33325H3.99967C3.29243 1.33325 2.61415 1.6142 2.11406 2.1143C1.61396 2.6144 1.33301 3.29267 1.33301 3.99992M1.33301 3.99992C1.33301 4.70716 1.61396 5.38544 2.11406 5.88554C2.61415 6.38563 3.29243 6.66659 3.99967 6.66659H19.9997C20.3533 6.66659 20.6924 6.80706 20.9425 7.05711C21.1925 7.30716 21.333 7.6463 21.333 7.99992V11.9999M1.33301 3.99992V19.9999C1.33301 20.7072 1.61396 21.3854 2.11406 21.8855C2.61415 22.3856 3.29243 22.6666 3.99967 22.6666H19.9997C20.3533 22.6666 20.6924 22.5261 20.9425 22.2761C21.1925 22.026 21.333 21.6869 21.333 21.3333V17.3333M22.6663 11.9999V17.3333H17.333C16.6258 17.3333 15.9475 17.0523 15.4474 16.5522C14.9473 16.0521 14.6663 15.3738 14.6663 14.6666C14.6663 13.9593 14.9473 13.2811 15.4474 12.781C15.9475 12.2809 16.6258 11.9999 17.333 11.9999H22.6663Z" stroke="black" stroke-width="2" stroke-linecap="round" stroke-linejoin="round"/>
</svg>
