<svg width="198" height="147" viewBox="0 0 198 147" fill="none" xmlns="http://www.w3.org/2000/svg">
<g filter="url(#filter0_d_1_113)">
<path d="M73.7969 18.8242C66.1471 22.8932 60.0436 26.474 55.4863 29.5664C50.929 32.6589 47.1042 36.5651 44.0117 41.2852C41.082 46.0052 39.6172 51.7018 39.6172 58.375C42.0586 61.9557 44.9069 64.804 48.1621 66.9199C51.5801 69.0358 55.7305 70.5007 60.6133 71.3145C77.7031 74.4069 86.248 83.6029 86.248 98.9023C86.248 108.017 83.0742 115.585 76.7266 121.607C70.3789 127.63 62.1595 130.641 52.0684 130.641C43.4421 130.641 35.7923 128.525 29.1191 124.293C22.446 120.061 17.2376 114.12 13.4941 106.471C9.91341 98.821 8.12305 90.1133 8.12305 80.3477C8.12305 68.4661 10.7272 56.8288 15.9355 45.4355C21.3066 33.8796 29.0378 24.0326 39.1289 15.8945C49.2201 7.75651 61.0202 2.4668 74.5293 0.0253906C79.0866 3.76888 82.0163 8.32617 83.3184 13.6973L73.7969 18.8242ZM177.557 18.8242C169.907 22.8932 163.803 26.474 159.246 29.5664C154.689 32.6589 150.864 36.5651 147.771 41.2852C144.842 46.0052 143.377 51.7018 143.377 58.375C147.934 65.3737 154.933 69.6868 164.373 71.3145C181.3 74.4069 189.764 83.6029 189.764 98.9023C189.764 108.017 186.59 115.585 180.242 121.607C174.057 127.63 165.919 130.641 155.828 130.641C147.202 130.641 139.552 128.525 132.879 124.293C126.206 120.061 120.997 114.12 117.254 106.471C113.673 98.821 111.883 90.1133 111.883 80.3477C111.883 68.4661 114.487 56.8288 119.695 45.4355C125.066 33.8796 132.798 24.0326 142.889 15.8945C152.98 7.75651 164.78 2.4668 178.289 0.0253906C182.846 3.76888 185.776 8.32617 187.078 13.6973L177.557 18.8242Z" fill="#E85558"/>
</g>
<defs>
<filter id="filter0_d_1_113" x="0.123047" y="0.0253906" width="197.641" height="146.615" filterUnits="userSpaceOnUse" color-interpolation-filters="sRGB">
<feFlood flood-opacity="0" result="BackgroundImageFix"/>
<feColorMatrix in="SourceAlpha" type="matrix" values="0 0 0 0 0 0 0 0 0 0 0 0 0 0 0 0 0 0 127 0" result="hardAlpha"/>
<feOffset dy="8"/>
<feGaussianBlur stdDeviation="4"/>
<feComposite in2="hardAlpha" operator="out"/>
<feColorMatrix type="matrix" values="0 0 0 0 0 0 0 0 0 0 0 0 0 0 0 0 0 0 0.25 0"/>
<feBlend mode="normal" in2="BackgroundImageFix" result="effect1_dropShadow_1_113"/>
<feBlend mode="normal" in="SourceGraphic" in2="effect1_dropShadow_1_113" result="shape"/>
</filter>
</defs>
</svg>
